<?xml version="1.0" encoding="UTF-8"?>
<svg xmlns="http://www.w3.org/2000/svg" xmlns:xlink="http://www.w3.org/1999/xlink" viewBox="0 0 48 48" width="48px" height="48px">
<g id="surface180896692">
<path style=" stroke:none;fill-rule:nonzero;fill:rgb(20.392157%,59.607846%,85.882354%);fill-opacity:1;" d="M 13.320312 35 C 10.273438 35 7.792969 34.007812 5.875 32.023438 C 3.957031 30.042969 2.996094 27.460938 2.996094 24.273438 C 2.996094 20.910156 3.96875 18.191406 5.917969 16.113281 C 7.867188 14.039062 10.449219 13 13.664062 13 C 16.699219 13 19.152344 13.996094 21.027344 15.980469 C 22.902344 17.96875 23.839844 20.589844 23.839844 23.84375 C 23.839844 27.1875 22.867188 29.882812 20.925781 31.929688 C 18.980469 33.976562 16.445312 35 13.320312 35 Z M 13.527344 17.125 C 11.847656 17.125 10.511719 17.753906 9.523438 19.015625 C 8.535156 20.277344 8.039062 21.945312 8.039062 24.023438 C 8.039062 26.128906 8.535156 27.796875 9.523438 29.023438 C 10.511719 30.25 11.808594 30.859375 13.410156 30.859375 C 15.0625 30.859375 16.371094 30.265625 17.34375 29.074219 C 18.3125 27.882812 18.796875 26.226562 18.796875 24.113281 C 18.796875 21.90625 18.324219 20.191406 17.386719 18.964844 C 16.445312 17.738281 15.160156 17.125 13.527344 17.125 Z M 13.527344 17.125 "/>
<path style=" stroke:none;fill-rule:nonzero;fill:rgb(20.392157%,59.607846%,85.882354%);fill-opacity:1;" d="M 42.992188 34.628906 L 39.558594 34.628906 C 39.210938 34.628906 38.882812 34.453125 38.6875 34.160156 L 32.160156 25.265625 L 32.160156 33.574219 C 32.160156 34.15625 31.6875 34.628906 31.109375 34.628906 L 28.421875 34.628906 C 27.839844 34.628906 27.371094 34.15625 27.371094 33.574219 L 27.371094 14.40625 C 27.371094 13.824219 27.839844 13.355469 28.421875 13.355469 L 31.109375 13.355469 C 31.691406 13.355469 32.160156 13.824219 32.160156 14.40625 L 32.160156 22.359375 L 38.390625 13.824219 C 38.585938 13.53125 38.914062 13.355469 39.269531 13.355469 L 42.34375 13.355469 C 43.203125 13.355469 43.699219 14.332031 43.191406 15.027344 L 36.996094 23.503906 L 43.84375 32.960938 C 44.347656 33.65625 43.851562 34.628906 42.992188 34.628906 Z M 42.992188 34.628906 "/>
</g>
</svg>
