<?xml version="1.0" encoding="UTF-8"?>
<svg xmlns="http://www.w3.org/2000/svg" xmlns:xlink="http://www.w3.org/1999/xlink" viewBox="0 0 48 48" width="48px" height="48px">
<g id="surface181402591">
<path style=" stroke:none;fill-rule:nonzero;fill:rgb(31.37255%,90.196079%,100%);fill-opacity:1;" d="M 4 24 L 4 40.125 C 4 41.160156 4.9375 42 6.09375 42 L 41.90625 42 C 43.0625 42 44 41.160156 44 40.125 L 44 24 L 24 22 Z M 4 24 "/>
<path style=" stroke:none;fill-rule:nonzero;fill:rgb(20.784314%,75.686276%,94.509804%);fill-opacity:1;" d="M 13 17 L 15 17 L 15 42 L 13 42 Z M 13 17 "/>
<path style=" stroke:none;fill-rule:nonzero;fill:rgb(20.784314%,75.686276%,94.509804%);fill-opacity:1;" d="M 23 17 L 25 17 L 25 42 L 23 42 Z M 23 17 "/>
<path style=" stroke:none;fill-rule:nonzero;fill:rgb(20.784314%,75.686276%,94.509804%);fill-opacity:1;" d="M 33 17 L 35 17 L 35 42 L 33 42 Z M 33 17 "/>
<path style=" stroke:none;fill-rule:nonzero;fill:rgb(9.803922%,60.784316%,88.627452%);fill-opacity:1;" d="M 4 24 L 4 19 C 4 17.894531 4.894531 17 6 17 L 42 17 C 43.105469 17 44 17.894531 44 19 L 44 24 Z M 4 24 "/>
<path style=" stroke:none;fill-rule:nonzero;fill:rgb(0%,46.666667%,81.960785%);fill-opacity:1;" d="M 13 17 L 15 17 L 15 24 L 13 24 Z M 13 17 "/>
<path style=" stroke:none;fill-rule:nonzero;fill:rgb(0%,46.666667%,81.960785%);fill-opacity:1;" d="M 23 17 L 25 17 L 25 24 L 23 24 Z M 23 17 "/>
<path style=" stroke:none;fill-rule:nonzero;fill:rgb(0%,46.666667%,81.960785%);fill-opacity:1;" d="M 33 17 L 35 17 L 35 24 L 33 24 Z M 33 17 "/>
<path style=" stroke:none;fill-rule:nonzero;fill:rgb(20.392157%,59.607846%,85.882354%);fill-opacity:1;" d="M 43.5 15 L 42.5 15 C 42.222656 15 42 14.777344 42 14.5 L 42 4.5 C 42 4.222656 42.222656 4 42.5 4 L 43.5 4 C 43.777344 4 44 4.222656 44 4.5 L 44 14.5 C 44 14.777344 43.777344 15 43.5 15 Z M 43.5 15 "/>
<path style=" stroke:none;fill-rule:nonzero;fill:rgb(20.392157%,59.607846%,85.882354%);fill-opacity:1;" d="M 5.5 15 L 4.5 15 C 4.222656 15 4 14.777344 4 14.5 L 4 4.5 C 4 4.222656 4.222656 4 4.5 4 L 5.5 4 C 5.777344 4 6 4.222656 6 4.5 L 6 14.5 C 6 14.777344 5.777344 15 5.5 15 Z M 5.5 15 "/>
<path style=" stroke:none;fill-rule:nonzero;fill:rgb(94.509804%,76.862746%,5.882353%);fill-opacity:1;" d="M 39.675781 8.785156 L 36.019531 5.199219 C 35.640625 4.828125 35 5.097656 35 5.628906 L 35 8 L 13 8 L 13 5.628906 C 13 5.097656 12.359375 4.828125 11.980469 5.199219 L 8.324219 8.785156 C 7.921875 9.179688 7.921875 9.820312 8.324219 10.214844 L 11.980469 13.800781 C 12.359375 14.171875 13 13.902344 13 13.371094 L 13 11 L 35 11 L 35 13.371094 C 35 13.902344 35.640625 14.171875 36.019531 13.800781 L 39.675781 10.214844 C 40.078125 9.820312 40.078125 9.179688 39.675781 8.785156 Z M 39.675781 8.785156 "/>
</g>
</svg>
