<?xml version="1.0" encoding="UTF-8"?>
<svg xmlns="http://www.w3.org/2000/svg" xmlns:xlink="http://www.w3.org/1999/xlink" viewBox="0 0 48 48" width="48px" height="48px">
<g id="surface181164265">
<path style=" stroke:none;fill-rule:nonzero;fill:rgb(31.37255%,90.196079%,100%);fill-opacity:1;" d="M 2 14.875 L 2 39.125 C 2 40.160156 2.9375 41 4.09375 41 L 43.90625 41 C 45.0625 41 46 40.160156 46 39.125 L 46 14.875 C 46 13.839844 45.0625 13 43.90625 13 L 4.09375 13 C 2.9375 13 2 13.839844 2 14.875 Z M 2 14.875 "/>
<path style=" stroke:none;fill-rule:nonzero;fill:rgb(9.803922%,60.784316%,88.627452%);fill-opacity:1;" d="M 24 13 L 35 13 L 35 41 L 24 41 Z M 24 13 "/>
<path style=" stroke:none;fill-rule:nonzero;fill:rgb(20.784314%,75.686276%,94.509804%);fill-opacity:1;" d="M 12 13 L 14 13 L 14 41 L 12 41 Z M 12 13 "/>
<path style=" stroke:none;fill-rule:nonzero;fill:rgb(94.509804%,76.862746%,5.882353%);fill-opacity:1;" d="M 35.292969 4.007812 L 23.707031 4.007812 C 23.078125 4.007812 22.765625 4.769531 23.207031 5.210938 L 28.628906 10.632812 C 29.109375 11.113281 29.890625 11.113281 30.371094 10.632812 L 35.792969 5.210938 C 36.234375 4.769531 35.921875 4.007812 35.292969 4.007812 Z M 35.292969 4.007812 "/>
</g>
</svg>
