<?xml version="1.0" encoding="UTF-8"?>
<svg xmlns="http://www.w3.org/2000/svg" xmlns:xlink="http://www.w3.org/1999/xlink" viewBox="0 0 48 48" width="48px" height="48px">
<defs>
<linearGradient id="linear0" gradientUnits="userSpaceOnUse" x1="86" y1="24.037001" x2="86" y2="53.66758" gradientTransform="matrix(0.27907,0,0,0.27907,0,0)">
<stop offset="0" style="stop-color:rgb(92.156863%,65.098041%,0%);stop-opacity:1;"/>
<stop offset="1" style="stop-color:rgb(76.078433%,50.980395%,0%);stop-opacity:1;"/>
</linearGradient>
<linearGradient id="linear1" gradientUnits="userSpaceOnUse" x1="86" y1="38.893501" x2="86" y2="146.855743" gradientTransform="matrix(0.27907,0,0,0.27907,0,0)">
<stop offset="0" style="stop-color:rgb(100%,84.705883%,41.176471%);stop-opacity:1;"/>
<stop offset="1" style="stop-color:rgb(99.607843%,77.254903%,16.862746%);stop-opacity:1;"/>
</linearGradient>
</defs>
<g id="surface181190583">
<path style=" stroke:none;fill-rule:nonzero;fill:url(#linear0);" d="M 24.414062 10.414062 L 21.878906 7.878906 C 21.316406 7.316406 20.554688 7 19.757812 7 L 5 7 C 3.894531 7 3 7.894531 3 9 L 3 39 C 3 40.105469 3.894531 41 5 41 L 43 41 C 44.105469 41 45 40.105469 45 39 L 45 13 C 45 11.894531 44.105469 11 43 11 L 25.828125 11 C 25.296875 11 24.789062 10.789062 24.414062 10.414062 Z M 24.414062 10.414062 "/>
<path style=" stroke:none;fill-rule:nonzero;fill:url(#linear1);" d="M 21.585938 14.414062 L 24.855469 11.144531 C 24.945312 11.054688 25.074219 11 25.207031 11 L 43 11 C 44.105469 11 45 11.894531 45 13 L 45 39 C 45 40.105469 44.105469 41 43 41 L 5 41 C 3.894531 41 3 40.105469 3 39 L 3 15.5 C 3 15.222656 3.222656 15 3.5 15 L 20.171875 15 C 20.703125 15 21.210938 14.789062 21.585938 14.414062 Z M 21.585938 14.414062 "/>
<path style=" stroke:none;fill-rule:nonzero;fill:rgb(20.392157%,59.607846%,85.882354%);fill-opacity:1;" d="M 27 21.5 L 27 22.5 C 27 22.777344 27.222656 23 27.5 23 L 34.5 23 C 34.777344 23 35 22.777344 35 22.5 L 35 21.5 C 35 21.222656 34.777344 21 34.5 21 L 27.5 21 C 27.222656 21 27 21.222656 27 21.5 Z M 27 21.5 "/>
<path style=" stroke:none;fill-rule:nonzero;fill:rgb(20.392157%,59.607846%,85.882354%);fill-opacity:1;" d="M 27 31.5 L 27 32.5 C 27 32.777344 27.222656 33 27.5 33 L 34.5 33 C 34.777344 33 35 32.777344 35 32.5 L 35 31.5 C 35 31.222656 34.777344 31 34.5 31 L 27.5 31 C 27.222656 31 27 31.222656 27 31.5 Z M 27 31.5 "/>
<path style=" stroke:none;fill-rule:nonzero;fill:rgb(20.392157%,59.607846%,85.882354%);fill-opacity:1;" d="M 27 35.5 L 27 36.5 C 27 36.777344 27.222656 37 27.5 37 L 34.5 37 C 34.777344 37 35 36.777344 35 36.5 L 35 35.5 C 35 35.222656 34.777344 35 34.5 35 L 27.5 35 C 27.222656 35 27 35.222656 27 35.5 Z M 27 35.5 "/>
<path style=" stroke:none;fill-rule:nonzero;fill:rgb(20.392157%,59.607846%,85.882354%);fill-opacity:1;" d="M 17.5 18 L 16.5 18 C 16.222656 18 16 18.222656 16 18.5 L 16 21 L 13.5 21 C 13.222656 21 13 21.222656 13 21.5 L 13 22.5 C 13 22.777344 13.222656 23 13.5 23 L 16 23 L 16 25.5 C 16 25.777344 16.222656 26 16.5 26 L 17.5 26 C 17.777344 26 18 25.777344 18 25.5 L 18 23 L 20.5 23 C 20.777344 23 21 22.777344 21 22.5 L 21 21.5 C 21 21.222656 20.777344 21 20.5 21 L 18 21 L 18 18.5 C 18 18.222656 17.777344 18 17.5 18 Z M 17.5 18 "/>
<path style=" stroke:none;fill-rule:nonzero;fill:rgb(20.392157%,59.607846%,85.882354%);fill-opacity:1;" d="M 18.769531 30.820312 L 17 32.585938 L 15.230469 30.816406 C 15.035156 30.621094 14.71875 30.621094 14.523438 30.816406 L 13.816406 31.523438 C 13.621094 31.71875 13.621094 32.035156 13.816406 32.230469 L 15.585938 34 L 13.816406 35.769531 C 13.621094 35.964844 13.621094 36.28125 13.816406 36.476562 L 14.523438 37.183594 C 14.71875 37.378906 15.035156 37.378906 15.230469 37.183594 L 17 35.414062 L 18.769531 37.183594 C 18.964844 37.378906 19.28125 37.378906 19.476562 37.183594 L 20.183594 36.476562 C 20.378906 36.28125 20.378906 35.964844 20.183594 35.769531 L 18.414062 34 L 20.183594 32.230469 C 20.378906 32.035156 20.378906 31.71875 20.183594 31.523438 L 19.476562 30.816406 C 19.277344 30.621094 18.964844 30.621094 18.769531 30.820312 Z M 18.769531 30.820312 "/>
</g>
</svg>
