<?xml version="1.0" encoding="UTF-8"?>
<svg xmlns="http://www.w3.org/2000/svg" xmlns:xlink="http://www.w3.org/1999/xlink" viewBox="0 0 48 48" width="48px" height="48px">
<g id="surface180540814">
<path style=" stroke:none;fill-rule:nonzero;fill:rgb(44.705883%,49.019608%,52.549022%);fill-opacity:1;" d="M 43 15 L 15 15 C 13.898438 15 13 14.101562 13 13 L 13 11 C 13 9.898438 13.898438 9 15 9 L 43 9 C 44.101562 9 45 9.898438 45 11 L 45 13 C 45 14.101562 44.101562 15 43 15 Z M 43 15 "/>
<path style=" stroke:none;fill-rule:nonzero;fill:rgb(44.705883%,49.019608%,52.549022%);fill-opacity:1;" d="M 43 27 L 15 27 C 13.898438 27 13 26.101562 13 25 L 13 23 C 13 21.898438 13.898438 21 15 21 L 43 21 C 44.101562 21 45 21.898438 45 23 L 45 25 C 45 26.101562 44.101562 27 43 27 Z M 43 27 "/>
<path style=" stroke:none;fill-rule:nonzero;fill:rgb(44.705883%,49.019608%,52.549022%);fill-opacity:1;" d="M 43 39 L 15 39 C 13.898438 39 13 38.101562 13 37 L 13 35 C 13 33.898438 13.898438 33 15 33 L 43 33 C 44.101562 33 45 33.898438 45 35 L 45 37 C 45 38.101562 44.101562 39 43 39 Z M 43 39 "/>
<path style=" stroke:none;fill-rule:nonzero;fill:rgb(20.392157%,59.607846%,85.882354%);fill-opacity:1;" d="M 4.699219 16 L 4.699219 10.367188 C 4.449219 10.515625 4.1875 10.632812 3.917969 10.710938 C 3.648438 10.789062 3.34375 10.84375 3 10.882812 L 3 9.136719 C 3.484375 9.050781 3.9375 8.917969 4.359375 8.738281 C 4.777344 8.558594 5.207031 8.3125 5.644531 8 L 7 8 L 7 16 Z M 4.699219 16 "/>
<path style=" stroke:none;fill-rule:nonzero;fill:rgb(20.392157%,59.607846%,85.882354%);fill-opacity:1;" d="M 3 28 L 3 27.367188 C 3 26.921875 3.054688 26.535156 3.164062 26.207031 C 3.277344 25.878906 3.453125 25.566406 3.691406 25.277344 C 3.929688 24.988281 4.34375 24.617188 4.933594 24.164062 C 5.355469 23.835938 5.636719 23.597656 5.773438 23.453125 C 5.914062 23.308594 6.015625 23.171875 6.085938 23.035156 C 6.152344 22.898438 6.1875 22.753906 6.1875 22.597656 C 6.1875 22.074219 5.867188 21.8125 5.230469 21.8125 C 4.585938 21.8125 3.972656 22.042969 3.398438 22.507812 L 3.398438 20.59375 C 3.835938 20.375 4.246094 20.21875 4.628906 20.132812 C 5.015625 20.042969 5.40625 20 5.8125 20 C 6.675781 20 7.347656 20.203125 7.820312 20.613281 C 8.292969 21.023438 8.527344 21.597656 8.527344 22.339844 C 8.527344 22.90625 8.402344 23.386719 8.15625 23.78125 C 7.910156 24.175781 7.449219 24.589844 6.777344 25.015625 C 6.261719 25.34375 5.921875 25.585938 5.753906 25.738281 C 5.585938 25.890625 5.5 26.019531 5.496094 26.125 L 8.601562 26.125 L 8.601562 28 Z M 3 28 "/>
<path style=" stroke:none;fill-rule:nonzero;fill:rgb(20.392157%,59.607846%,85.882354%);fill-opacity:1;" d="M 8.601562 37.652344 C 8.601562 38.398438 8.308594 38.976562 7.726562 39.386719 C 7.140625 39.796875 6.308594 40 5.222656 40 C 4.816406 40 4.417969 39.96875 4.019531 39.90625 C 3.625 39.84375 3.285156 39.757812 3 39.65625 L 3 37.851562 C 3.261719 37.996094 3.558594 38.109375 3.890625 38.191406 C 4.226562 38.277344 4.566406 38.316406 4.90625 38.316406 C 5.304688 38.316406 5.609375 38.25 5.820312 38.121094 C 6.03125 37.988281 6.140625 37.800781 6.140625 37.554688 C 6.140625 37.308594 6.007812 37.113281 5.75 36.972656 C 5.488281 36.832031 5.125 36.761719 4.65625 36.761719 L 3.851562 36.761719 L 3.851562 35.070312 L 4.5625 35.070312 C 5.035156 35.070312 5.382812 35 5.605469 34.867188 C 5.828125 34.730469 5.941406 34.558594 5.941406 34.339844 C 5.941406 34.136719 5.855469 33.972656 5.6875 33.855469 C 5.519531 33.734375 5.257812 33.675781 4.910156 33.675781 C 4.367188 33.675781 3.828125 33.820312 3.285156 34.109375 L 3.285156 32.386719 C 3.960938 32.128906 4.675781 32 5.421875 32 C 6.347656 32 7.070312 32.175781 7.597656 32.523438 C 8.121094 32.871094 8.382812 33.355469 8.382812 33.972656 C 8.382812 34.457031 8.242188 34.859375 7.960938 35.1875 C 7.679688 35.515625 7.28125 35.730469 6.773438 35.828125 L 6.773438 35.855469 C 7.339844 35.929688 7.78125 36.128906 8.109375 36.453125 C 8.4375 36.777344 8.601562 37.179688 8.601562 37.652344 Z M 8.601562 37.652344 "/>
</g>
</svg>
