<?xml version="1.0" encoding="UTF-8"?>
<svg xmlns="http://www.w3.org/2000/svg" xmlns:xlink="http://www.w3.org/1999/xlink" viewBox="0 0 48 48" width="48px" height="48px">
<g id="surface181054065">
<path style=" stroke:none;fill-rule:nonzero;fill:rgb(20.392157%,59.607846%,85.882354%);fill-opacity:1;" d="M 39 16 L 39 41 C 39 42.105469 38.105469 43 37 43 L 11 43 C 9.894531 43 9 42.105469 9 41 L 9 7 C 9 5.894531 9.894531 5 11 5 L 28 5 Z M 39 16 "/>
<path style=" stroke:none;fill-rule:nonzero;fill:rgb(94.509804%,76.862746%,5.882353%);fill-opacity:1;" d="M 28 5 L 28 14 C 28 15.105469 28.894531 16 30 16 L 39 16 Z M 28 5 "/>
<path style=" stroke:none;fill-rule:nonzero;fill:rgb(94.509804%,76.862746%,5.882353%);fill-opacity:1;" d="M 16.738281 26.988281 L 16.738281 29.519531 L 15.082031 29.519531 L 15.082031 22.171875 L 17.675781 22.171875 C 19.527344 22.171875 20.453125 22.953125 20.453125 24.515625 C 20.453125 25.253906 20.1875 25.851562 19.65625 26.304688 C 19.125 26.761719 18.414062 26.988281 17.527344 26.988281 Z M 16.738281 23.445312 L 16.738281 25.734375 L 17.390625 25.734375 C 18.269531 25.734375 18.710938 25.347656 18.710938 24.574219 C 18.710938 23.820312 18.269531 23.445312 17.390625 23.445312 Z M 16.738281 23.445312 "/>
<path style=" stroke:none;fill-rule:nonzero;fill:rgb(94.509804%,76.862746%,5.882353%);fill-opacity:1;" d="M 21.527344 29.519531 L 21.527344 22.171875 L 24.132812 22.171875 C 26.742188 22.171875 28.046875 23.367188 28.046875 25.753906 C 28.046875 26.898438 27.6875 27.8125 26.976562 28.496094 C 26.265625 29.179688 25.316406 29.519531 24.132812 29.519531 Z M 23.183594 23.519531 L 23.183594 28.179688 L 24.003906 28.179688 C 24.71875 28.179688 25.28125 27.964844 25.691406 27.53125 C 26.097656 27.101562 26.304688 26.515625 26.304688 25.773438 C 26.304688 25.074219 26.101562 24.523438 25.695312 24.121094 C 25.292969 23.722656 24.722656 23.519531 23.992188 23.519531 Z M 23.183594 23.519531 "/>
<path style=" stroke:none;fill-rule:nonzero;fill:rgb(94.509804%,76.862746%,5.882353%);fill-opacity:1;" d="M 33.515625 23.519531 L 30.921875 23.519531 L 30.921875 25.324219 L 33.304688 25.324219 L 33.304688 26.667969 L 30.921875 26.667969 L 30.921875 29.519531 L 29.265625 29.519531 L 29.265625 22.171875 L 33.515625 22.171875 Z M 33.515625 23.519531 "/>
</g>
</svg>
