<?xml version="1.0" encoding="UTF-8"?>
<svg xmlns="http://www.w3.org/2000/svg" xmlns:xlink="http://www.w3.org/1999/xlink" viewBox="0 0 48 48" width="48px" height="48px">
<defs>
<linearGradient id="linear0" gradientUnits="userSpaceOnUse" x1="86.032181" y1="94.006508" x2="86.031197" y2="150.165634" gradientTransform="matrix(0.27907,0,0,0.27907,0,0)">
<stop offset="0" style="stop-color:rgb(20.392157%,59.607846%,85.882354%);stop-opacity:1;"/>
<stop offset="0.005" style="stop-color:rgb(20.392157%,59.607846%,85.882354%);stop-opacity:1;"/>
<stop offset="0.053" style="stop-color:rgb(39.215687%,8.235294%,61.56863%);stop-opacity:1;"/>
<stop offset="0.103" style="stop-color:rgb(20.392157%,59.607846%,85.882354%);stop-opacity:1;"/>
<stop offset="0.156" style="stop-color:rgb(20.392157%,59.607846%,85.882354%);stop-opacity:1;"/>
<stop offset="0.213" style="stop-color:rgb(20.392157%,59.607846%,85.882354%);stop-opacity:1;"/>
<stop offset="0.282" style="stop-color:rgb(20.392157%,59.607846%,85.882354%);stop-opacity:1;"/>
</linearGradient>
</defs>
<g id="surface180635191">
<path style=" stroke:none;fill-rule:nonzero;fill:rgb(20.392157%,59.607846%,85.882354%);fill-opacity:1;" d="M 41 20 L 28 20 L 28 7 C 28 5.894531 27.105469 5 26 5 L 22 5 C 20.894531 5 20 5.894531 20 7 L 20 20 L 7 20 C 5.894531 20 5 20.894531 5 22 L 5 26 C 5 27.105469 5.894531 28 7 28 L 41 28 C 42.105469 28 43 27.105469 43 26 L 43 22 C 43 20.894531 42.105469 20 41 20 Z M 41 20 "/>
<path style=" stroke:none;fill-rule:nonzero;fill:url(#linear0);" d="M 28 28 L 20 28 L 20 41 C 20 42.105469 20.894531 43 22 43 L 26 43 C 27.105469 43 28 42.105469 28 41 Z M 28 28 "/>
</g>
</svg>
