<?xml version="1.0" encoding="UTF-8"?>
<svg xmlns="http://www.w3.org/2000/svg" xmlns:xlink="http://www.w3.org/1999/xlink" viewBox="0 0 48 48" width="48px" height="48px">
<g id="surface181281926">
<path style=" stroke:none;fill-rule:nonzero;fill:rgb(30.19608%,81.568629%,90.588236%);fill-opacity:1;" d="M 1 15.199219 L 1 32.800781 C 1 34.015625 2.027344 35 3.300781 35 L 44.699219 35 C 45.972656 35 47 34.015625 47 32.800781 L 47 15.199219 C 47 13.984375 45.972656 13 44.699219 13 L 3.300781 13 C 2.027344 13 1 13.984375 1 15.199219 Z M 1 15.199219 "/>
<path style=" stroke:none;fill-rule:nonzero;fill:rgb(9.411765%,30.980393%,52.156866%);fill-opacity:1;" d="M 13 28.5 C 13 29.328125 12.328125 30 11.5 30 C 10.671875 30 10 29.328125 10 28.5 C 10 27.671875 10.671875 27 11.5 27 C 12.328125 27 13 27.671875 13 28.5 Z M 13 28.5 "/>
<path style=" stroke:none;fill-rule:nonzero;fill:rgb(9.411765%,30.980393%,52.156866%);fill-opacity:1;" d="M 8 28.5 C 8 29.328125 7.328125 30 6.5 30 C 5.671875 30 5 29.328125 5 28.5 C 5 27.671875 5.671875 27 6.5 27 C 7.328125 27 8 27.671875 8 28.5 Z M 8 28.5 "/>
<path style=" stroke:none;fill-rule:nonzero;fill:rgb(9.411765%,30.980393%,52.156866%);fill-opacity:1;" d="M 18 28.5 C 18 29.328125 17.328125 30 16.5 30 C 15.671875 30 15 29.328125 15 28.5 C 15 27.671875 15.671875 27 16.5 27 C 17.328125 27 18 27.671875 18 28.5 Z M 18 28.5 "/>
</g>
</svg>
