<?xml version="1.0" encoding="UTF-8"?>
<svg xmlns="http://www.w3.org/2000/svg" xmlns:xlink="http://www.w3.org/1999/xlink" viewBox="0 0 48 48" width="48px" height="48px">
<g id="surface181044824">
<path style=" stroke:none;fill-rule:nonzero;fill:rgb(94.509804%,76.862746%,5.882353%);fill-opacity:1;" d="M 41 41 L 7 41 C 6.445312 41 6 41.445312 6 42 L 6 44 C 6 44.550781 6.445312 45 7 45 L 41 45 C 41.550781 45 42 44.550781 42 44 L 42 42 C 42 41.445312 41.550781 41 41 41 Z M 41 41 "/>
<path style=" stroke:none;fill-rule:nonzero;fill:rgb(20.392157%,59.607846%,85.882354%);fill-opacity:1;" d="M 37.929688 3 L 32 3 C 31.449219 3 31 3.449219 31 4 L 31 22.273438 C 31 28.089844 28.6875 31 24.066406 31 C 19.355469 31 17 27.988281 17 21.960938 L 17 4 C 17 3.449219 16.550781 3 16 3 L 10.070312 3 C 9.480469 3 9 3.480469 9 4.070312 L 9 22.039062 C 9 32.679688 13.921875 38 23.773438 38 C 33.925781 38 39 32.554688 39 21.65625 L 39 4.070312 C 39 3.480469 38.519531 3 37.929688 3 Z M 37.929688 3 "/>
</g>
</svg>
