<?xml version="1.0" encoding="UTF-8"?>
<svg xmlns="http://www.w3.org/2000/svg" xmlns:xlink="http://www.w3.org/1999/xlink" viewBox="0 0 48 48" width="48px" height="48px">
<defs>
<linearGradient id="linear0" gradientUnits="userSpaceOnUse" x1="86" y1="24.037001" x2="86" y2="53.66758" gradientTransform="matrix(0.27907,0,0,0.27907,0,0)">
<stop offset="0" style="stop-color:rgb(92.156863%,65.098041%,0%);stop-opacity:1;"/>
<stop offset="1" style="stop-color:rgb(76.078433%,50.980395%,0%);stop-opacity:1;"/>
</linearGradient>
<linearGradient id="linear1" gradientUnits="userSpaceOnUse" x1="86" y1="38.893501" x2="86" y2="146.855743" gradientTransform="matrix(0.27907,0,0,0.27907,0,0)">
<stop offset="0" style="stop-color:rgb(100%,84.705883%,41.176471%);stop-opacity:1;"/>
<stop offset="1" style="stop-color:rgb(99.607843%,77.254903%,16.862746%);stop-opacity:1;"/>
</linearGradient>
</defs>
<g id="surface181092098">
<path style=" stroke:none;fill-rule:nonzero;fill:url(#linear0);" d="M 24.414062 10.414062 L 21.878906 7.878906 C 21.316406 7.316406 20.554688 7 19.757812 7 L 5 7 C 3.894531 7 3 7.894531 3 9 L 3 39 C 3 40.105469 3.894531 41 5 41 L 43 41 C 44.105469 41 45 40.105469 45 39 L 45 13 C 45 11.894531 44.105469 11 43 11 L 25.828125 11 C 25.296875 11 24.789062 10.789062 24.414062 10.414062 Z M 24.414062 10.414062 "/>
<path style=" stroke:none;fill-rule:nonzero;fill:url(#linear1);" d="M 21.585938 14.414062 L 24.855469 11.144531 C 24.945312 11.054688 25.074219 11 25.207031 11 L 43 11 C 44.105469 11 45 11.894531 45 13 L 45 39 C 45 40.105469 44.105469 41 43 41 L 5 41 C 3.894531 41 3 40.105469 3 39 L 3 15.5 C 3 15.222656 3.222656 15 3.5 15 L 20.171875 15 C 20.703125 15 21.210938 14.789062 21.585938 14.414062 Z M 21.585938 14.414062 "/>
<path style=" stroke:none;fill-rule:nonzero;fill:rgb(20.392157%,59.607846%,85.882354%);fill-opacity:1;" d="M 17 22 L 26 22 C 27.648438 22 29 23.351562 29 25 L 29 31 C 29 32.648438 27.648438 34 26 34 L 17 34 C 15.351562 34 14 32.648438 14 31 L 14 25 C 14 23.351562 15.351562 22 17 22 Z M 17 22 "/>
<path style=" stroke:none;fill-rule:nonzero;fill:rgb(20.784314%,44.705883%,67.843139%);fill-opacity:1;" d="M 34 33.5 L 29 30.5 L 29 25.5 L 34 22.5 Z M 34 33.5 "/>
</g>
</svg>
