<?xml version="1.0" encoding="UTF-8"?>
<svg xmlns="http://www.w3.org/2000/svg" xmlns:xlink="http://www.w3.org/1999/xlink" viewBox="0 0 48 48" width="48px" height="48px">
<defs>
<linearGradient id="linear0" gradientUnits="userSpaceOnUse" x1="86" y1="24.037001" x2="86" y2="53.66758" gradientTransform="matrix(0.27907,0,0,0.27907,0,0)">
<stop offset="0" style="stop-color:rgb(94.509804%,76.862746%,5.882353%);stop-opacity:1;"/>
<stop offset="1" style="stop-color:rgb(76.078433%,50.980395%,0%);stop-opacity:1;"/>
</linearGradient>
<linearGradient id="linear1" gradientUnits="userSpaceOnUse" x1="86" y1="38.893501" x2="86" y2="146.855743" gradientTransform="matrix(0.27907,0,0,0.27907,0,0)">
<stop offset="0" style="stop-color:rgb(100%,84.705883%,41.176471%);stop-opacity:1;"/>
<stop offset="1" style="stop-color:rgb(99.607843%,77.254903%,16.862746%);stop-opacity:1;"/>
</linearGradient>
</defs>
<g id="surface181734554">
<path style=" stroke:none;fill-rule:nonzero;fill:url(#linear0);" d="M 24.414062 10.414062 L 21.878906 7.878906 C 21.316406 7.316406 20.554688 7 19.757812 7 L 5 7 C 3.894531 7 3 7.894531 3 9 L 3 39 C 3 40.105469 3.894531 41 5 41 L 43 41 C 44.105469 41 45 40.105469 45 39 L 45 13 C 45 11.894531 44.105469 11 43 11 L 25.828125 11 C 25.296875 11 24.789062 10.789062 24.414062 10.414062 Z M 24.414062 10.414062 "/>
<path style=" stroke:none;fill-rule:nonzero;fill:url(#linear1);" d="M 21.585938 14.414062 L 24.855469 11.144531 C 24.945312 11.054688 25.074219 11 25.207031 11 L 43 11 C 44.105469 11 45 11.894531 45 13 L 45 39 C 45 40.105469 44.105469 41 43 41 L 5 41 C 3.894531 41 3 40.105469 3 39 L 3 15.5 C 3 15.222656 3.222656 15 3.5 15 L 20.171875 15 C 20.703125 15 21.210938 14.789062 21.585938 14.414062 Z M 21.585938 14.414062 "/>
<path style=" stroke:none;fill-rule:nonzero;fill:rgb(20.392157%,59.607846%,85.882354%);fill-opacity:1;" d="M 17.886719 24.253906 L 16.035156 31.253906 L 14.289062 31.253906 L 13.125 26.761719 C 13.066406 26.527344 13.027344 26.265625 13.015625 25.976562 L 12.996094 25.976562 C 12.964844 26.296875 12.921875 26.558594 12.867188 26.761719 L 11.675781 31.253906 L 9.855469 31.253906 L 8.015625 24.253906 L 9.738281 24.253906 L 10.722656 28.914062 C 10.765625 29.113281 10.796875 29.382812 10.816406 29.71875 L 10.847656 29.71875 C 10.859375 29.464844 10.90625 29.191406 10.988281 28.898438 L 12.257812 24.253906 L 13.945312 24.253906 L 15.09375 28.953125 C 15.136719 29.128906 15.175781 29.378906 15.203125 29.707031 L 15.226562 29.707031 C 15.238281 29.449219 15.273438 29.1875 15.328125 28.925781 L 16.296875 24.253906 Z M 17.886719 24.253906 "/>
<path style=" stroke:none;fill-rule:nonzero;fill:rgb(20.392157%,59.607846%,85.882354%);fill-opacity:1;" d="M 28.9375 24.253906 L 27.085938 31.253906 L 25.335938 31.253906 L 24.175781 26.761719 C 24.113281 26.527344 24.074219 26.265625 24.0625 25.976562 L 24.042969 25.976562 C 24.015625 26.296875 23.972656 26.558594 23.917969 26.761719 L 22.726562 31.253906 L 20.902344 31.253906 L 19.0625 24.253906 L 20.785156 24.253906 L 21.773438 28.914062 C 21.816406 29.113281 21.847656 29.382812 21.867188 29.71875 L 21.894531 29.71875 C 21.90625 29.464844 21.957031 29.191406 22.035156 28.898438 L 23.308594 24.253906 L 24.996094 24.253906 L 26.144531 28.953125 C 26.183594 29.128906 26.222656 29.378906 26.253906 29.707031 L 26.273438 29.707031 C 26.289062 29.449219 26.320312 29.1875 26.378906 28.925781 L 27.347656 24.253906 Z M 28.9375 24.253906 "/>
<path style=" stroke:none;fill-rule:nonzero;fill:rgb(20.392157%,59.607846%,85.882354%);fill-opacity:1;" d="M 39.984375 24.253906 L 38.132812 31.253906 L 36.386719 31.253906 L 35.222656 26.761719 C 35.160156 26.527344 35.121094 26.265625 35.113281 25.976562 L 35.09375 25.976562 C 35.0625 26.296875 35.019531 26.558594 34.964844 26.761719 L 33.773438 31.253906 L 31.953125 31.253906 L 30.113281 24.253906 L 31.835938 24.253906 L 32.820312 28.914062 C 32.863281 29.113281 32.894531 29.382812 32.914062 29.71875 L 32.945312 29.71875 C 32.957031 29.464844 33.003906 29.191406 33.085938 28.898438 L 34.355469 24.253906 L 36.042969 24.253906 L 37.191406 28.953125 C 37.234375 29.128906 37.273438 29.378906 37.304688 29.707031 L 37.324219 29.707031 C 37.335938 29.449219 37.371094 29.1875 37.425781 28.925781 L 38.394531 24.253906 Z M 39.984375 24.253906 "/>
</g>
</svg>
