<svg width="400" height="71" viewBox="0 0 400 71" fill="none" xmlns="http://www.w3.org/2000/svg">
  <title>logo-text</title>
  <g id="Page-1" stroke="none" stroke-width="1" fill="none" fill-rule="evenodd">
      <g id="logo-text" fill-rule="nonzero">
<path d="M24.0644 69.2476H32.9054V16.5809H24.0644V69.2476ZM0 0V7.80245H56.9759V0H0Z" fill="#007AD9"/>
<path d="M65.921 70.1243C68.2518 70.1243 70.493 69.8618 72.6446 69.2494C74.7961 68.7244 76.6787 67.937 78.4717 66.8871C80.2646 65.8372 81.7886 64.6123 83.1333 63.2125C84.478 61.8126 85.5537 60.3251 86.3606 58.5753L79.5474 56.7379C79.0095 57.9628 78.2923 59.0127 77.3958 59.8876C76.4993 60.8501 75.4236 61.6375 74.2582 62.2499C73.0031 62.9499 71.748 63.4749 70.4033 63.8249C68.969 64.1748 67.6242 64.3498 66.1899 64.3498C64.128 64.3498 62.1558 63.9998 60.3629 63.2124C58.5699 62.5124 56.9562 61.4625 55.5219 60.0626C54.0875 58.7502 52.9221 57.1753 52.0256 55.2505C51.1291 53.4132 50.5913 51.3133 50.4119 49.0385H89.229C89.229 48.776 89.3186 48.3385 89.3186 47.8136C89.3186 47.2886 89.4083 46.7637 89.4083 46.0637C89.4083 43.0889 88.7807 40.1141 87.705 37.3144C86.6292 34.5146 85.0155 31.9773 83.0433 29.8775C80.9814 27.7776 78.4713 26.0277 75.6026 24.7153C72.7339 23.4904 69.5065 22.7905 66.0103 22.7905C62.4244 22.7905 59.1972 23.4905 56.3284 24.7153C53.37 25.9402 50.8599 27.6901 48.7084 29.79C46.5568 31.9773 44.9432 34.5146 43.7778 37.3144C42.6123 40.2017 42.0745 43.264 42.0745 46.4137C42.0745 49.6509 42.6123 52.7131 43.7778 55.6005C44.9432 58.4878 46.5568 61.0251 48.7084 63.1249C50.7703 65.3122 53.2804 67.0621 56.2388 68.287C59.1075 69.512 62.3348 70.1243 65.9207 70.1243H65.921ZM81.9678 43.3515H50.2328C50.4121 41.2516 50.8603 39.2394 51.7567 37.4019C52.6532 35.6521 53.7289 34.0771 55.1634 32.7647C56.5977 31.4523 58.2114 30.4025 60.094 29.7025C61.8869 29.0025 63.8591 28.565 66.0107 28.565C68.0726 28.565 70.0448 29.0025 71.9274 29.7025C73.7203 30.4024 75.334 31.4523 76.7684 32.6773C78.2027 33.9897 79.3681 35.5646 80.2646 37.4019C81.1611 39.2393 81.7886 41.2516 81.9679 43.3515H81.9678Z" fill="#007AD9"/>
<path d="M93.791 0V58.9121C93.791 62.2007 94.7084 64.7375 96.7469 66.5228C98.7854 68.402 101.537 69.2476 105.003 69.2476C106.532 69.2476 108.366 69.0597 110.405 68.6838C112.443 68.308 114.176 67.8382 115.705 67.2745L114.278 60.6034C113.36 60.9792 112.443 61.2611 111.424 61.449C110.405 61.637 109.487 61.7309 108.774 61.7309C106.837 61.7309 105.308 61.2611 104.289 60.2276C103.27 59.194 102.76 57.7847 102.76 55.9055V0.000481813L93.791 0Z" fill="#007AD9"/>
<path d="M139.551 70.1243C141.882 70.1243 144.123 69.8618 146.275 69.2494C148.427 68.7244 150.309 67.937 152.102 66.8871C153.895 65.8372 155.419 64.6123 156.764 63.2125C158.108 61.8126 159.184 60.3251 159.991 58.5753L153.178 56.7379C152.64 57.9628 151.923 59.0127 151.026 59.8876C150.13 60.8501 149.054 61.6375 147.889 62.2499C146.633 62.9499 145.378 63.4749 144.034 63.8249C142.599 64.1748 141.255 64.3498 139.82 64.3498C137.758 64.3498 135.786 63.9998 133.993 63.2124C132.2 62.5124 130.587 61.4625 129.152 60.0626C127.718 58.7502 126.552 57.1753 125.656 55.2505C124.76 53.4132 124.222 51.3133 124.042 49.0385H162.859C162.859 48.776 162.949 48.3385 162.949 47.8136C162.949 47.2886 163.039 46.7637 163.039 46.0637C163.039 43.0889 162.411 40.1141 161.335 37.3144C160.26 34.5146 158.646 31.9773 156.674 29.8775C154.612 27.7776 152.102 26.0277 149.233 24.7153C146.364 23.4904 143.137 22.7905 139.641 22.7905C136.055 22.7905 132.828 23.4905 129.959 24.7153C127 25.9402 124.49 27.6901 122.339 29.79C120.187 31.9773 118.574 34.5146 117.408 37.3144C116.243 40.2017 115.705 43.264 115.705 46.4137C115.705 49.6509 116.243 52.7131 117.408 55.6005C118.574 58.4878 120.187 61.0251 122.339 63.1249C124.401 65.3122 126.911 67.0621 129.869 68.287C132.738 69.512 135.965 70.1243 139.551 70.1243H139.551ZM155.598 43.3515H123.863C124.042 41.2516 124.491 39.2394 125.387 37.4019C126.284 35.6521 127.359 34.0771 128.794 32.7647C130.228 31.4523 131.842 30.4025 133.724 29.7025C135.517 29.0025 137.489 28.565 139.641 28.565C141.703 28.565 143.675 29.0025 145.558 29.7025C147.351 30.4024 148.964 31.4523 150.399 32.6773C151.833 33.9897 152.998 35.5646 153.895 37.4019C154.791 39.2393 155.419 41.2516 155.598 43.3515H155.598Z" fill="#007AD9"/>
<path d="M167.447 38.3402L186.156 38.1769L186.105 32.3509L167.396 32.5142L167.447 38.3402Z" fill="#007AD9"/>
<path d="M229.324 56.669C217.82 56.669 207.87 46.8476 207.77 34.9639C206.17 38.7942 203.569 45.8655 205.97 53.4279C206.67 55.785 208.671 60.7939 214.473 65.5081C216.573 67.1778 218.502 68.0364 220.903 68.9203C223.603 69.5096 226.877 70.1241 229.878 70.1241C243.683 70.1241 255.287 63.9367 261.889 54.3118L247.484 48.0262C243.383 53.3297 236.88 56.669 230.078 56.669H229.324ZM230.078 13.5534C236.98 13.5534 243.483 16.8927 247.584 22.1962L262.089 15.8123C255.487 6.18743 243.783 0 229.878 0C208.27 0 191.965 15.0266 191.965 34.8656C191.965 39.7763 192.965 44.3923 194.766 48.6155C199.567 12.5713 230.078 13.5534 230.078 13.5534Z" fill="#007AD9"/>
<path d="M321.348 0L302.325 43.463L283.302 0H265.595V69.7198H279.559V20.5877L297.165 62.6583H307.485L325.091 20.6872L325.193 69.8193H338.954V0.0994697L321.348 0Z" fill="#007AD9"/>
<path d="M376.991 28.3137C369.528 26.1584 362.999 24.2969 362.999 18.8105C362.999 15.1856 366.108 13.0302 371.394 13.0302C377.094 13.0302 386.008 15.8714 393.367 19.9862L399.482 7.34788C392.227 2.74322 382.38 0 372.949 0C356.469 0 345.897 8.03367 345.897 20.3781C345.897 34.388 357.92 37.719 368.492 40.6581C376.162 42.8135 382.795 44.6749 382.795 50.3573C382.795 54.668 379.167 57.2153 373.052 57.2153C365.486 57.2153 355.122 53.0025 348.074 47.1242L341.855 59.4686C350.25 66.1307 361.755 70.1475 372.845 70.1475C389.325 70.1475 400 62.0159 400 49.4756C400 35.0738 387.874 31.5468 377.094 28.5097L376.991 28.3137Z" fill="#007AD9"/>
</svg>
