<?xml version="1.0" encoding="UTF-8"?>
<svg xmlns="http://www.w3.org/2000/svg" xmlns:xlink="http://www.w3.org/1999/xlink" viewBox="0 0 48 48" width="48px" height="48px">
<g id="surface181358967">
<path style=" stroke:none;fill-rule:nonzero;fill:rgb(80.000001%,80.000001%,80.000001%);fill-opacity:1;" d="M 9.101562 41.5 L 5.800781 42.199219 L 6.5 38.898438 C 6.5 38.699219 6.601562 38.5 6.800781 38.398438 L 18.398438 26.800781 L 21.199219 29.601562 L 9.601562 41.199219 C 9.5 41.300781 9.300781 41.398438 9.101562 41.5 Z M 9.101562 41.5 "/>
<path style=" stroke:none;fill-rule:nonzero;fill:rgb(20.392157%,59.607846%,85.882354%);fill-opacity:1;" d="M 29.199219 28.699219 L 19.300781 18.800781 L 34.300781 7.101562 L 40.898438 13.699219 Z M 29.199219 28.699219 "/>
<path style=" stroke:none;fill-rule:nonzero;fill:rgb(40.000001%,40.000001%,40.000001%);fill-opacity:1;" d="M 16.890625 28.257812 L 18.375 26.773438 L 21.207031 29.601562 L 19.71875 31.085938 Z M 16.890625 28.257812 "/>
<path style=" stroke:none;fill-rule:nonzero;fill:rgb(13.725491%,39.607844%,74.901962%);fill-opacity:1;" d="M 28.300781 36.699219 L 11.300781 19.699219 L 13.398438 17.601562 C 15.699219 15.300781 19.5 15.300781 21.898438 17.601562 L 30.398438 26.101562 C 32.699219 28.398438 32.699219 32.199219 30.398438 34.601562 Z M 28.300781 36.699219 "/>
<path style=" stroke:none;fill-rule:nonzero;fill:rgb(13.725491%,39.607844%,74.901962%);fill-opacity:1;" d="M 37.898438 16.699219 L 31.300781 10.101562 C 30.5 9.300781 30.5 7.898438 31.300781 7.101562 L 32 6.398438 C 32.800781 5.601562 34.199219 5.601562 35 6.398438 L 41.601562 13 C 42.398438 13.800781 42.398438 15.199219 41.601562 16 L 40.898438 16.699219 C 40.101562 17.5 38.699219 17.5 37.898438 16.699219 Z M 37.898438 16.699219 "/>
</g>
</svg>
