<?xml version="1.0" encoding="UTF-8"?>
<svg xmlns="http://www.w3.org/2000/svg" xmlns:xlink="http://www.w3.org/1999/xlink" viewBox="0 0 48 48" width="48px" height="48px">
<defs>
<linearGradient id="linear0" gradientUnits="userSpaceOnUse" x1="109.990417" y1="41.366001" x2="151.281174" y2="41.366001" gradientTransform="matrix(0.27907,0,0,0.27907,0,0)">
<stop offset="0" style="stop-color:rgb(20.392157%,32.941177%,85.882354%);stop-opacity:1;"/>
<stop offset="1" style="stop-color:rgb(20.392157%,51.764709%,85.882354%);stop-opacity:1;"/>
</linearGradient>
</defs>
<g id="surface181366677">
<path style=" stroke:none;fill-rule:nonzero;fill:rgb(80.000001%,80.000001%,80.000001%);fill-opacity:1;" d="M 9.101562 41.5 L 5.800781 42.199219 L 6.5 38.898438 C 6.5 38.699219 6.601562 38.5 6.800781 38.398438 L 18.398438 26.800781 L 21.199219 29.601562 L 9.601562 41.199219 C 9.5 41.300781 9.300781 41.398438 9.101562 41.5 Z M 9.101562 41.5 "/>
<path style=" stroke:none;fill-rule:nonzero;fill:rgb(14.509805%,56.862748%,83.137256%);fill-opacity:1;" d="M 29.199219 28.699219 L 19.300781 18.800781 L 34.300781 7.101562 L 40.898438 13.699219 Z M 29.199219 28.699219 "/>
<path style=" stroke:none;fill-rule:nonzero;fill:rgb(40.000001%,40.000001%,40.000001%);fill-opacity:1;" d="M 15.890625 29.257812 L 17.375 27.773438 L 20.207031 30.601562 L 18.71875 32.085938 Z M 15.890625 29.257812 "/>
<path style=" stroke:none;fill-rule:nonzero;fill:rgb(20.392157%,44.313726%,85.882354%);fill-opacity:1;" d="M 27.300781 37.699219 L 10.300781 20.699219 L 12.199219 18.800781 C 14.5 16.5 18.300781 16.5 20.699219 18.800781 L 29.199219 27.300781 C 31.5 29.601562 31.5 33.398438 29.199219 35.800781 Z M 27.300781 37.699219 "/>
<path style=" stroke:none;fill-rule:nonzero;fill:url(#linear0);" d="M 37.898438 16.699219 L 31.300781 10.101562 C 30.5 9.300781 30.5 7.898438 31.300781 7.101562 L 32 6.398438 C 32.800781 5.601562 34.199219 5.601562 35 6.398438 L 41.601562 13 C 42.398438 13.800781 42.398438 15.199219 41.601562 16 L 40.898438 16.699219 C 40.101562 17.5 38.699219 17.5 37.898438 16.699219 Z M 37.898438 16.699219 "/>
<path style=" stroke:none;fill-rule:nonzero;fill:rgb(89.803922%,12.54902%,18.82353%);fill-opacity:1;" d="M 44.898438 42.699219 L 5.300781 3.101562 C 5.101562 3 4.898438 3 4.699219 3.101562 L 3.101562 4.699219 C 3 4.898438 3 5.101562 3.101562 5.300781 L 42.699219 44.898438 C 42.800781 45 43.101562 45 43.199219 44.898438 L 44.800781 43.300781 C 45 43.101562 45 42.898438 44.898438 42.699219 Z M 44.898438 42.699219 "/>
</g>
</svg>
