<?xml version="1.0" encoding="UTF-8"?>
<svg xmlns="http://www.w3.org/2000/svg" xmlns:xlink="http://www.w3.org/1999/xlink" viewBox="0 0 48 48" width="48px" height="48px">
<defs>
<linearGradient id="linear0" gradientUnits="userSpaceOnUse" x1="70.727829" y1="8.75767" x2="97.033081" y2="157.953323" gradientTransform="matrix(0.27907,0,0,0.27907,0,0)">
<stop offset="0" style="stop-color:rgb(20.392157%,59.607846%,85.882354%);stop-opacity:1;"/>
<stop offset="0.441" style="stop-color:rgb(23.137255%,60.392159%,89.411765%);stop-opacity:1;"/>
<stop offset="0.702" style="stop-color:rgb(20.392157%,59.607846%,85.882354%);stop-opacity:1;"/>
<stop offset="0.915" style="stop-color:rgb(31.37255%,64.313728%,85.882354%);stop-opacity:1;"/>
<stop offset="1" style="stop-color:rgb(20.392157%,59.607846%,85.882354%);stop-opacity:1;"/>
</linearGradient>
</defs>
<g id="surface180720819">
<path style=" stroke:none;fill-rule:nonzero;fill:url(#linear0);" d="M 10 43 L 10 5 C 10 4.449219 10.449219 4 11 4 L 24.539062 4 C 28.996094 4 32.425781 4.816406 34.820312 6.453125 C 37.214844 8.089844 38.414062 10.398438 38.414062 13.371094 C 38.414062 15.53125 37.683594 17.417969 36.226562 19.035156 C 34.769531 20.652344 32.90625 21.777344 30.640625 22.410156 L 30.640625 22.523438 C 33.484375 22.875 35.753906 23.925781 37.453125 25.675781 C 39.152344 27.421875 40 29.550781 40 32.0625 C 40 35.722656 38.691406 38.628906 36.074219 40.777344 C 33.453125 42.925781 29.878906 44 25.347656 44 L 11 44 C 10.449219 44 10 43.550781 10 43 Z M 18.996094 10.640625 L 18.996094 20.121094 L 22.953125 20.121094 C 24.808594 20.121094 26.273438 19.671875 27.339844 18.769531 C 28.410156 17.867188 28.941406 16.628906 28.941406 15.046875 C 28.941406 12.109375 26.753906 10.640625 22.367188 10.640625 Z M 18.996094 26.816406 L 18.996094 37.359375 L 23.871094 37.359375 C 25.953125 37.359375 27.582031 36.878906 28.761719 35.910156 C 29.941406 34.945312 30.527344 33.625 30.527344 31.949219 C 30.527344 30.351562 29.949219 29.097656 28.789062 28.183594 C 27.628906 27.273438 26.007812 26.816406 23.925781 26.816406 Z M 18.996094 26.816406 "/>
</g>
</svg>
