<svg width="501" height="501" viewBox="0 0 501 501" fill="none" xmlns="http://www.w3.org/2000/svg">
<g filter="url(#filter0_b_6303_19)">
<path d="M500 72.7939L500 472.999C500 487.91 487.912 499.999 473 499.999L110.373 499.999C97.6702 499.999 87.3727 489.701 87.3727 476.999L87.3727 72.7939L500 72.7939Z" fill="url(#paint0_linear_6303_19)" fill-opacity="0.5"/>
<path d="M500.5 72.7939L500.5 72.2939L500 72.2939L87.3727 72.2939L86.8727 72.2939L86.8727 72.7939L86.8727 476.999C86.8727 489.977 97.394 500.499 110.373 500.499L473 500.499C488.188 500.499 500.5 488.186 500.5 472.999L500.5 72.7939Z" stroke="url(#paint1_radial_6303_19)"/>
<path d="M500.5 72.7939L500.5 72.2939L500 72.2939L87.3727 72.2939L86.8727 72.2939L86.8727 72.7939L86.8727 476.999C86.8727 489.977 97.394 500.499 110.373 500.499L473 500.499C488.188 500.499 500.5 488.186 500.5 472.999L500.5 72.7939Z" stroke="url(#paint2_radial_6303_19)"/>
<path d="M500.5 72.7939L500.5 72.2939L500 72.2939L87.3727 72.2939L86.8727 72.2939L86.8727 72.7939L86.8727 476.999C86.8727 489.977 97.394 500.499 110.373 500.499L473 500.499C488.188 500.499 500.5 488.186 500.5 472.999L500.5 72.7939Z" stroke="url(#paint3_radial_6303_19)"/>
</g>
<path d="M103.524 499.999H16.1097C13.9936 500 11.8979 499.579 9.94259 498.759C7.98723 497.939 6.21057 496.735 4.71428 495.218C3.21798 493.701 2.03142 491.899 1.2225 489.916C0.413567 487.934 -0.0018557 485.808 6.23121e-06 483.663V72.7939H87.4284V483.663C87.4265 485.807 87.8415 487.931 88.6495 489.913C89.4576 491.895 90.6429 493.696 92.1377 495.213C93.6325 496.73 95.4074 497.934 97.3612 498.755C99.3149 499.576 101.409 499.999 103.524 499.999V499.999Z" fill="white"/>
<path d="M60.3975 116.822H28.4054C24.3738 116.822 21.1055 120.326 21.1055 124.649V158.95C21.1055 163.272 24.3738 166.776 28.4054 166.776H60.3975C64.4291 166.776 67.6974 163.272 67.6974 158.95V124.649C67.6974 120.326 64.4291 116.822 60.3975 116.822Z" fill="#151515" fill-opacity="0.18"/>
<path d="M60.3975 184.709H28.4054C24.3738 184.709 21.1055 188.213 21.1055 192.536V226.837C21.1055 231.159 24.3738 234.664 28.4054 234.664H60.3975C64.4291 234.664 67.6974 231.159 67.6974 226.837V192.536C67.6974 188.213 64.4291 184.709 60.3975 184.709Z" fill="#FFD600" fill-opacity="0.18"/>
<path d="M60.3975 252.582H28.4054C24.3738 252.582 21.1055 256.086 21.1055 260.408V294.709C21.1055 299.032 24.3738 302.536 28.4054 302.536H60.3975C64.4291 302.536 67.6974 299.032 67.6974 294.709V260.408C67.6974 256.086 64.4291 252.582 60.3975 252.582Z" fill="#FFD600" fill-opacity="0.18"/>
<path d="M60.3975 320.454H28.4054C24.3738 320.454 21.1055 323.958 21.1055 328.281V362.581C21.1055 366.904 24.3738 370.408 28.4054 370.408H60.3975C64.4291 370.408 67.6974 366.904 67.6974 362.581V328.281C67.6974 323.958 64.4291 320.454 60.3975 320.454Z" fill="#FFD600" fill-opacity="0.18"/>
<path d="M15.1804 0H485.553C489.384 0 493.058 2.79375 495.768 7.76668C498.477 12.7396 499.999 19.4843 499.999 26.5171V72.7939H0.734375V26.5171C0.734375 19.4843 2.25637 12.7396 4.96552 7.76668C7.67468 2.79375 11.3491 0 15.1804 0V0Z" fill="#3586CB"/>
<path d="M15.1804 0.125H485.553C489.318 0.125 492.959 2.8725 495.658 7.82648C498.355 12.7771 499.874 19.5002 499.874 26.5171V72.6689H0.859375V26.5171C0.859375 19.5002 2.37827 12.7771 5.07529 7.82648C7.77413 2.8725 11.4148 0.125 15.1804 0.125Z" stroke="white" stroke-opacity="0.4" stroke-width="0.25"/>
<path d="M103.346 0C99.0835 0.0061455 94.9966 2.78863 91.9837 7.73601C88.9708 12.6834 87.2784 19.3909 87.2784 26.3844V72.4297H0V26.3844C0 19.3868 1.69436 12.6759 4.71033 7.72782C7.7263 2.77978 11.8168 0 16.0821 0H103.346Z" fill="#366FCA"/>
<path d="M286.857 56.664H291.362V29.7854H286.857V56.664ZM274.594 21.3234V25.3054H303.629V21.3234H274.594Z" fill="white"/>
<path d="M286.857 56.664H291.362V29.7854H286.857V56.664ZM274.594 21.3234V25.3054H303.629V21.3234H274.594Z" fill="url(#paint4_radial_6303_19)" fill-opacity="0.2"/>
<path d="M307.742 57.1115C308.93 57.1115 310.072 56.9775 311.168 56.6649C312.265 56.397 313.224 55.9952 314.138 55.4593C315.052 54.9235 315.828 54.2984 316.514 53.584C317.199 52.8696 317.747 52.1104 318.158 51.2174L314.686 50.2797C314.412 50.9048 314.047 51.4406 313.59 51.8872C313.133 52.3783 312.585 52.7802 311.991 53.0928C311.351 53.45 310.712 53.7179 310.026 53.8965C309.295 54.0751 308.61 54.1644 307.879 54.1644C306.828 54.1644 305.823 53.9858 304.91 53.5839C303.996 53.2267 303.174 52.6909 302.443 51.9765C301.712 51.3067 301.118 50.5029 300.661 49.5206C300.204 48.5829 299.93 47.5112 299.839 46.3503H319.62C319.62 46.2163 319.666 45.9931 319.666 45.7251C319.666 45.4572 319.711 45.1893 319.711 44.8321C319.711 43.3139 319.391 41.7957 318.843 40.3669C318.295 38.938 317.473 37.6431 316.468 36.5714C315.417 35.4997 314.138 34.6067 312.676 33.9369C311.214 33.3118 309.569 32.9546 307.788 32.9546C305.96 32.9546 304.316 33.3118 302.854 33.9369C301.346 34.5621 300.067 35.4551 298.97 36.5268C297.874 37.6431 297.052 38.938 296.458 40.3669C295.864 41.8404 295.59 43.4032 295.59 45.0107C295.59 46.6628 295.864 48.2256 296.458 49.6992C297.052 51.1727 297.874 52.4676 298.97 53.5393C300.021 54.6556 301.3 55.5487 302.808 56.1738C304.27 56.7989 305.915 57.1115 307.742 57.1115H307.742ZM315.92 43.4479H299.747C299.839 42.3763 300.067 41.3493 300.524 40.4116C300.981 39.5185 301.529 38.7147 302.26 38.0449C302.991 37.3752 303.813 36.8394 304.773 36.4821C305.686 36.1249 306.691 35.9016 307.788 35.9016C308.839 35.9016 309.844 36.1249 310.803 36.4821C311.717 36.8393 312.539 37.3752 313.27 38.0003C314.001 38.6701 314.595 39.4739 315.052 40.4116C315.508 41.3492 315.828 42.3763 315.92 43.4479H315.92Z" fill="white"/>
<path d="M307.742 57.1115C308.93 57.1115 310.072 56.9775 311.168 56.6649C312.265 56.397 313.224 55.9952 314.138 55.4593C315.052 54.9235 315.828 54.2984 316.514 53.584C317.199 52.8696 317.747 52.1104 318.158 51.2174L314.686 50.2797C314.412 50.9048 314.047 51.4406 313.59 51.8872C313.133 52.3783 312.585 52.7802 311.991 53.0928C311.351 53.45 310.712 53.7179 310.026 53.8965C309.295 54.0751 308.61 54.1644 307.879 54.1644C306.828 54.1644 305.823 53.9858 304.91 53.5839C303.996 53.2267 303.174 52.6909 302.443 51.9765C301.712 51.3067 301.118 50.5029 300.661 49.5206C300.204 48.5829 299.93 47.5112 299.839 46.3503H319.62C319.62 46.2163 319.666 45.9931 319.666 45.7251C319.666 45.4572 319.711 45.1893 319.711 44.8321C319.711 43.3139 319.391 41.7957 318.843 40.3669C318.295 38.938 317.473 37.6431 316.468 36.5714C315.417 35.4997 314.138 34.6067 312.676 33.9369C311.214 33.3118 309.569 32.9546 307.788 32.9546C305.96 32.9546 304.316 33.3118 302.854 33.9369C301.346 34.5621 300.067 35.4551 298.97 36.5268C297.874 37.6431 297.052 38.938 296.458 40.3669C295.864 41.8404 295.59 43.4032 295.59 45.0107C295.59 46.6628 295.864 48.2256 296.458 49.6992C297.052 51.1727 297.874 52.4676 298.97 53.5393C300.021 54.6556 301.3 55.5487 302.808 56.1738C304.27 56.7989 305.915 57.1115 307.742 57.1115H307.742ZM315.92 43.4479H299.747C299.839 42.3763 300.067 41.3493 300.524 40.4116C300.981 39.5185 301.529 38.7147 302.26 38.0449C302.991 37.3752 303.813 36.8394 304.773 36.4821C305.686 36.1249 306.691 35.9016 307.788 35.9016C308.839 35.9016 309.844 36.1249 310.803 36.4821C311.717 36.8393 312.539 37.3752 313.27 38.0003C314.001 38.6701 314.595 39.4739 315.052 40.4116C315.508 41.3492 315.828 42.3763 315.92 43.4479H315.92Z" fill="url(#paint5_radial_6303_19)" fill-opacity="0.2"/>
<path d="M321.496 21.3234V51.3893C321.496 53.0676 321.964 54.3623 323.002 55.2734C324.041 56.2324 325.444 56.664 327.21 56.664C327.989 56.664 328.924 56.5681 329.962 56.3763C331.001 56.1845 331.884 55.9447 332.663 55.657L331.936 52.2524C331.469 52.4442 331.001 52.5881 330.482 52.684C329.962 52.7799 329.495 52.8278 329.131 52.8278C328.145 52.8278 327.365 52.5881 326.846 52.0606C326.327 51.5331 326.067 50.8139 326.067 49.8548V21.3236L321.496 21.3234Z" fill="white"/>
<path d="M321.496 21.3234V51.3893C321.496 53.0676 321.964 54.3623 323.002 55.2734C324.041 56.2324 325.444 56.664 327.21 56.664C327.989 56.664 328.924 56.5681 329.962 56.3763C331.001 56.1845 331.884 55.9447 332.663 55.657L331.936 52.2524C331.469 52.4442 331.001 52.5881 330.482 52.684C329.962 52.7799 329.495 52.8278 329.131 52.8278C328.145 52.8278 327.365 52.5881 326.846 52.0606C326.327 51.5331 326.067 50.8139 326.067 49.8548V21.3236L321.496 21.3234Z" fill="url(#paint6_radial_6303_19)" fill-opacity="0.2"/>
<path d="M343.031 57.1115C344.219 57.1115 345.361 56.9775 346.458 56.6649C347.554 56.397 348.513 55.9952 349.427 55.4593C350.341 54.9235 351.117 54.2984 351.803 53.584C352.488 52.8696 353.036 52.1104 353.447 51.2174L349.975 50.2797C349.701 50.9048 349.336 51.4406 348.879 51.8872C348.422 52.3783 347.874 52.7802 347.28 53.0928C346.64 53.45 346.001 53.7179 345.315 53.8965C344.584 54.0751 343.899 54.1644 343.168 54.1644C342.117 54.1644 341.112 53.9858 340.199 53.5839C339.285 53.2267 338.463 52.6909 337.732 51.9765C337.001 51.3067 336.407 50.5029 335.95 49.5206C335.493 48.5829 335.219 47.5112 335.128 46.3503H354.909C354.909 46.2163 354.955 45.9931 354.955 45.7251C354.955 45.4572 355 45.1893 355 44.8321C355 43.3139 354.681 41.7957 354.132 40.3669C353.584 38.938 352.762 37.6431 351.757 36.5714C350.706 35.4997 349.427 34.6067 347.965 33.9369C346.503 33.3118 344.858 32.9546 343.077 32.9546C341.249 32.9546 339.605 33.3118 338.143 33.9369C336.635 34.5621 335.356 35.4551 334.26 36.5268C333.163 37.6431 332.341 38.938 331.747 40.3669C331.153 41.8404 330.879 43.4032 330.879 45.0107C330.879 46.6628 331.153 48.2256 331.747 49.6992C332.341 51.1727 333.163 52.4676 334.26 53.5393C335.31 54.6556 336.589 55.5487 338.097 56.1738C339.559 56.7989 341.204 57.1115 343.031 57.1115H343.031ZM351.209 43.4479H335.036C335.128 42.3763 335.356 41.3493 335.813 40.4116C336.27 39.5185 336.818 38.7147 337.549 38.0449C338.28 37.3752 339.102 36.8394 340.062 36.4821C340.975 36.1249 341.98 35.9016 343.077 35.9016C344.128 35.9016 345.133 36.1249 346.092 36.4821C347.006 36.8393 347.828 37.3752 348.559 38.0003C349.29 38.6701 349.884 39.4739 350.341 40.4116C350.798 41.3492 351.117 42.3763 351.209 43.4479H351.209Z" fill="white"/>
<path d="M343.031 57.1115C344.219 57.1115 345.361 56.9775 346.458 56.6649C347.554 56.397 348.513 55.9952 349.427 55.4593C350.341 54.9235 351.117 54.2984 351.803 53.584C352.488 52.8696 353.036 52.1104 353.447 51.2174L349.975 50.2797C349.701 50.9048 349.336 51.4406 348.879 51.8872C348.422 52.3783 347.874 52.7802 347.28 53.0928C346.64 53.45 346.001 53.7179 345.315 53.8965C344.584 54.0751 343.899 54.1644 343.168 54.1644C342.117 54.1644 341.112 53.9858 340.199 53.5839C339.285 53.2267 338.463 52.6909 337.732 51.9765C337.001 51.3067 336.407 50.5029 335.95 49.5206C335.493 48.5829 335.219 47.5112 335.128 46.3503H354.909C354.909 46.2163 354.955 45.9931 354.955 45.7251C354.955 45.4572 355 45.1893 355 44.8321C355 43.3139 354.681 41.7957 354.132 40.3669C353.584 38.938 352.762 37.6431 351.757 36.5714C350.706 35.4997 349.427 34.6067 347.965 33.9369C346.503 33.3118 344.858 32.9546 343.077 32.9546C341.249 32.9546 339.605 33.3118 338.143 33.9369C336.635 34.5621 335.356 35.4551 334.26 36.5268C333.163 37.6431 332.341 38.938 331.747 40.3669C331.153 41.8404 330.879 43.4032 330.879 45.0107C330.879 46.6628 331.153 48.2256 331.747 49.6992C332.341 51.1727 333.163 52.4676 334.26 53.5393C335.31 54.6556 336.589 55.5487 338.097 56.1738C339.559 56.7989 341.204 57.1115 343.031 57.1115H343.031ZM351.209 43.4479H335.036C335.128 42.3763 335.356 41.3493 335.813 40.4116C336.27 39.5185 336.818 38.7147 337.549 38.0449C338.28 37.3752 339.102 36.8394 340.062 36.4821C340.975 36.1249 341.98 35.9016 343.077 35.9016C344.128 35.9016 345.133 36.1249 346.092 36.4821C347.006 36.8393 347.828 37.3752 348.559 38.0003C349.29 38.6701 349.884 39.4739 350.341 40.4116C350.798 41.3492 351.117 42.3763 351.209 43.4479H351.209Z" fill="url(#paint7_radial_6303_19)" fill-opacity="0.2"/>
<path d="M357.694 40.8905L367.228 40.8072L367.202 37.8339L357.668 37.9172L357.694 40.8905Z" fill="white"/>
<path d="M357.694 40.8905L367.228 40.8072L367.202 37.8339L357.668 37.9172L357.694 40.8905Z" fill="url(#paint8_radial_6303_19)" fill-opacity="0.2"/>
<path d="M388.78 50.2445C382.918 50.2445 377.848 45.2321 377.797 39.1672C376.981 41.122 375.656 44.7309 376.879 48.5904C377.236 49.7934 378.255 52.3496 381.212 54.7555C382.283 55.6076 383.265 56.0458 384.489 56.497C385.865 56.7977 387.533 57.1113 389.063 57.1113C396.098 57.1113 402.011 53.9536 405.376 49.0415L398.035 45.8336C395.945 48.5403 392.631 50.2445 389.165 50.2445H388.78ZM389.165 28.2404C392.682 28.2404 395.996 29.9446 398.086 32.6512L405.478 29.3932C402.113 24.4811 396.149 21.3234 389.063 21.3234C378.052 21.3234 369.742 28.9922 369.742 39.1171C369.742 41.6233 370.252 43.9791 371.17 46.1344C373.616 27.7391 389.165 28.2404 389.165 28.2404Z" fill="white"/>
<path d="M388.78 50.2445C382.918 50.2445 377.848 45.2321 377.797 39.1672C376.981 41.122 375.656 44.7309 376.879 48.5904C377.236 49.7934 378.255 52.3496 381.212 54.7555C382.283 55.6076 383.265 56.0458 384.489 56.497C385.865 56.7977 387.533 57.1113 389.063 57.1113C396.098 57.1113 402.011 53.9536 405.376 49.0415L398.035 45.8336C395.945 48.5403 392.631 50.2445 389.165 50.2445H388.78ZM389.165 28.2404C392.682 28.2404 395.996 29.9446 398.086 32.6512L405.478 29.3932C402.113 24.4811 396.149 21.3234 389.063 21.3234C378.052 21.3234 369.742 28.9922 369.742 39.1171C369.742 41.6233 370.252 43.9791 371.17 46.1344C373.616 27.7391 389.165 28.2404 389.165 28.2404Z" fill="url(#paint9_radial_6303_19)" fill-opacity="0.2"/>
<path d="M435.673 21.3234L425.979 43.5048L416.285 21.3234H407.262V56.905H414.377V31.8303L423.35 53.3011H428.609L437.581 31.8811L437.633 56.9557H444.645V21.3741L435.673 21.3234Z" fill="white"/>
<path d="M435.673 21.3234L425.979 43.5048L416.285 21.3234H407.262V56.905H414.377V31.8303L423.35 53.3011H428.609L437.581 31.8811L437.633 56.9557H444.645V21.3741L435.673 21.3234Z" fill="url(#paint10_radial_6303_19)" fill-opacity="0.2"/>
<path d="M464.03 35.7733C460.227 34.6733 456.9 33.7233 456.9 30.9233C456.9 29.0734 458.484 27.9733 461.178 27.9733C464.083 27.9733 468.625 29.4233 472.375 31.5233L475.492 25.0734C471.794 22.7234 466.777 21.3234 461.97 21.3234C453.572 21.3234 448.185 25.4234 448.185 31.7233C448.185 38.8733 454.312 40.5733 459.699 42.0733C463.608 43.1733 466.988 44.1233 466.988 47.0233C466.988 49.2233 465.139 50.5233 462.023 50.5233C458.167 50.5233 452.886 48.3733 449.294 45.3733L446.125 51.6733C450.403 55.0733 456.266 57.1233 461.917 57.1233C470.315 57.1233 475.756 52.9733 475.756 46.5733C475.756 39.2233 469.576 37.4233 464.083 35.8733L464.03 35.7733Z" fill="white"/>
<path d="M464.03 35.7733C460.227 34.6733 456.9 33.7233 456.9 30.9233C456.9 29.0734 458.484 27.9733 461.178 27.9733C464.083 27.9733 468.625 29.4233 472.375 31.5233L475.492 25.0734C471.794 22.7234 466.777 21.3234 461.97 21.3234C453.572 21.3234 448.185 25.4234 448.185 31.7233C448.185 38.8733 454.312 40.5733 459.699 42.0733C463.608 43.1733 466.988 44.1233 466.988 47.0233C466.988 49.2233 465.139 50.5233 462.023 50.5233C458.167 50.5233 452.886 48.3733 449.294 45.3733L446.125 51.6733C450.403 55.0733 456.266 57.1233 461.917 57.1233C470.315 57.1233 475.756 52.9733 475.756 46.5733C475.756 39.2233 469.576 37.4233 464.083 35.8733L464.03 35.7733Z" fill="url(#paint11_radial_6303_19)" fill-opacity="0.2"/>
<g filter="url(#filter1_b_6303_19)">
<path d="M87.3711 72.2939H86.8711V72.7939L86.8711 475.999C86.8711 489.53 97.8401 500.499 111.371 500.499H475.264C488.795 500.499 499.764 489.53 499.764 475.999V72.7939V72.2939H499.264L87.3711 72.2939Z" stroke="url(#paint12_radial_6303_19)"/>
<path d="M87.3711 72.2939H86.8711V72.7939L86.8711 475.999C86.8711 489.53 97.8401 500.499 111.371 500.499H475.264C488.795 500.499 499.764 489.53 499.764 475.999V72.7939V72.2939H499.264L87.3711 72.2939Z" stroke="url(#paint13_radial_6303_19)"/>
<path d="M87.3711 72.2939H86.8711V72.7939L86.8711 475.999C86.8711 489.53 97.8401 500.499 111.371 500.499H475.264C488.795 500.499 499.764 489.53 499.764 475.999V72.7939V72.2939H499.264L87.3711 72.2939Z" stroke="url(#paint14_radial_6303_19)"/>
<path d="M87.3711 72.2939H86.8711V72.7939L86.8711 475.999C86.8711 489.53 97.8401 500.499 111.371 500.499H475.264C488.795 500.499 499.764 489.53 499.764 475.999V72.7939V72.2939H499.264L87.3711 72.2939Z" stroke="black" stroke-opacity="0.2"/>
</g>
<path d="M457.923 466.911C458.753 466.908 459.423 466.232 459.42 465.401C459.417 464.57 458.742 463.899 457.912 463.902C457.083 463.905 456.413 464.581 456.416 465.412C456.419 466.243 457.094 466.914 457.923 466.911Z" fill="white"/>
<path d="M457.894 457.886C455.95 457.893 454.085 458.655 452.69 460.011C452.404 460.289 452.241 460.67 452.235 461.069C452.23 461.468 452.383 461.853 452.66 462.139C452.938 462.425 453.318 462.589 453.717 462.595C454.115 462.6 454.5 462.447 454.786 462.169C455.636 461.384 456.749 460.946 457.905 460.942C459.062 460.937 460.178 461.367 461.033 462.146C461.321 462.422 461.707 462.573 462.105 462.564C462.504 462.556 462.883 462.389 463.158 462.101C463.434 461.813 463.584 461.426 463.576 461.027C463.567 460.628 463.401 460.249 463.113 459.973C461.709 458.627 459.838 457.879 457.894 457.886V457.886ZM457.867 450.366C456.053 450.374 454.259 450.747 452.592 451.464C450.925 452.18 449.42 453.226 448.165 454.537C448.028 454.683 447.922 454.854 447.851 455.041C447.781 455.228 447.748 455.427 447.754 455.627C447.76 455.826 447.806 456.023 447.888 456.205C447.97 456.387 448.087 456.551 448.233 456.688C448.526 456.964 448.918 457.112 449.32 457.099C449.52 457.093 449.716 457.047 449.898 456.965C450.08 456.883 450.244 456.766 450.38 456.62C451.357 455.597 452.53 454.783 453.828 454.224C455.127 453.666 456.524 453.375 457.938 453.37C459.351 453.365 460.75 453.645 462.053 454.194C463.356 454.743 464.534 455.549 465.519 456.565C465.658 456.706 465.825 456.819 466.008 456.896C466.191 456.972 466.388 457.012 466.587 457.012C466.88 457.01 467.166 456.922 467.41 456.758C467.654 456.595 467.845 456.363 467.959 456.092C468.073 455.822 468.106 455.523 468.052 455.234C467.999 454.945 467.862 454.678 467.659 454.466C466.387 453.156 464.864 452.118 463.181 451.413C461.498 450.708 459.691 450.352 457.867 450.366Z" fill="white"/>
<path d="M472.454 448.703C468.521 444.931 463.28 442.834 457.835 442.854C452.389 442.874 447.164 445.009 443.258 448.809C443.006 449.092 442.87 449.461 442.877 449.84C442.884 450.22 443.035 450.582 443.298 450.856C443.561 451.129 443.918 451.292 444.296 451.313C444.675 451.334 445.047 451.21 445.339 450.968C448.687 447.702 453.172 445.867 457.845 445.85C462.519 445.833 467.017 447.635 470.389 450.876C470.669 451.144 471.04 451.293 471.427 451.294C471.629 451.292 471.829 451.25 472.015 451.169C472.2 451.088 472.368 450.971 472.507 450.823C472.779 450.535 472.927 450.15 472.917 449.752C472.907 449.355 472.741 448.978 472.454 448.703V448.703Z" fill="white"/>
<path d="M285.93 432.1L154.918 366.057V189.818L285.93 255.862V432.1Z" fill="#366FCA"/>
<path d="M285.93 432.1L416.942 366.057V189.818L285.93 255.862V432.1Z" fill="#5D84DA" fill-opacity="0.5"/>
<path d="M285.93 432.1L416.942 366.057V189.818L285.93 255.862V432.1Z" fill="url(#paint15_radial_6303_19)" fill-opacity="0.2"/>
<path d="M416.942 189.818L285.93 139.705L154.918 189.818L285.93 255.862L416.942 189.818Z" fill="#3586CB"/>
<path d="M416.942 189.818L285.93 139.705L154.918 189.818L285.93 255.862L416.942 189.818Z" fill="url(#paint16_radial_6303_19)" fill-opacity="0.2"/>
<path d="M306.884 399.857C312.708 399.857 317.429 394.841 317.429 388.654C317.429 382.467 312.708 377.451 306.884 377.451C301.061 377.451 296.34 382.467 296.34 388.654C296.34 394.841 301.061 399.857 306.884 399.857Z" fill="#AADDF9" fill-opacity="0.5"/>
<path d="M216.029 284.203C219.83 284.564 223.546 285.876 226.889 288.037C230.232 290.198 233.114 293.151 235.311 296.668L251.774 290.093C244.732 277.449 231.857 268.605 216.298 267.269C192.111 265.193 173.318 282.377 172.599 307.133C172.417 313.023 173.313 318.948 175.233 324.56C181.916 280.044 216.033 284.076 216.033 284.076L216.029 284.203ZM214.584 337.768C201.707 336.662 189.967 323.614 190.287 308.774C188.354 313.403 185.188 321.974 187.601 331.644C188.299 334.652 190.355 341.093 196.676 347.534C198.909 349.726 201.437 351.519 204.159 352.844C207.3 353.866 210.518 354.514 213.755 354.776C229.203 356.102 242.415 349.492 250.155 338.117L234.258 328.891C231.883 332.003 228.865 334.442 225.434 336.022C222.003 337.601 218.251 338.278 214.466 338.002L214.584 337.768Z" fill="white"/>
<path d="M422.408 345.698L334.753 304.511C333.787 304.053 332.704 303.905 331.652 304.087C330.6 304.27 329.63 304.774 328.874 305.531C328.118 306.288 327.613 307.26 327.429 308.316C327.245 309.371 327.39 310.457 327.845 311.427L368.912 399.381C369.359 400.337 370.086 401.133 370.995 401.665C371.904 402.197 372.953 402.438 374.003 402.357C375.052 402.277 376.052 401.877 376.87 401.212C377.687 400.548 378.284 399.649 378.58 398.636L382.784 384.171C383.035 383.304 383.508 382.517 384.156 381.889C384.803 381.26 385.602 380.812 386.475 380.588C387.347 380.363 388.263 380.371 389.132 380.61C390 380.849 390.792 381.311 391.429 381.95L430.086 420.733C430.568 421.218 431.14 421.602 431.77 421.865C432.4 422.127 433.075 422.262 433.757 422.262C434.439 422.262 435.114 422.127 435.744 421.865C436.374 421.602 436.946 421.218 437.428 420.733L443.691 414.45C444.659 413.473 445.202 412.151 445.202 410.774C445.202 409.397 444.659 408.075 443.691 407.098L405.02 368.301C404.386 367.661 403.929 366.866 403.694 365.996C403.458 365.125 403.451 364.208 403.674 363.334C403.897 362.461 404.343 361.66 404.966 361.01C405.59 360.36 406.371 359.884 407.233 359.628L421.651 355.411C422.666 355.118 423.568 354.521 424.235 353.701C424.903 352.88 425.305 351.874 425.387 350.817C425.47 349.761 425.228 348.705 424.696 347.79C424.163 346.875 423.365 346.145 422.408 345.698V345.698Z" fill="white" fill-opacity="0.95"/>
<rect width="15.5152" height="38.4371" transform="matrix(0.994903 -0.100837 0.136499 0.99064 373.527 236.035)" fill="#F6D372" fill-opacity="0.76"/>
<rect width="12.664" height="39.304" transform="matrix(0.137442 0.99051 -0.994811 0.101743 402.594 246.297)" fill="#F6D372" fill-opacity="0.76"/>
<rect width="13.3355" height="17.994" transform="matrix(0.999977 0.00670761 -0.00599258 0.999982 218.586 182.936)" fill="#F6D372" fill-opacity="0.76"/>
<rect width="5.92833" height="33.7831" transform="matrix(-0.00424343 0.999991 -0.999981 -0.00621134 242.105 189.249)" fill="#F6D372" fill-opacity="0.76"/>
<path d="M313.705 371.227C317.816 371.227 321.148 367.605 321.148 363.137C321.148 358.668 317.816 355.046 313.705 355.046C309.594 355.046 306.262 358.668 306.262 363.137C306.262 367.605 309.594 371.227 313.705 371.227Z" fill="#AADDF9"/>
<path d="M318.046 363.759C318.389 363.759 318.666 363.481 318.666 363.137C318.666 362.793 318.389 362.514 318.046 362.514C317.703 362.514 317.426 362.793 317.426 363.137C317.426 363.481 317.703 363.759 318.046 363.759Z" fill="white"/>
<path d="M318.046 365.004C318.389 365.004 318.666 364.725 318.666 364.382C318.666 364.038 318.389 363.759 318.046 363.759C317.703 363.759 317.426 364.038 317.426 364.382C317.426 364.725 317.703 365.004 318.046 365.004Z" fill="white"/>
<defs>
<filter id="filter0_b_6303_19" x="44.3711" y="29.7939" width="498.629" height="513.205" filterUnits="userSpaceOnUse" color-interpolation-filters="sRGB">
<feFlood flood-opacity="0" result="BackgroundImageFix"/>
<feGaussianBlur in="BackgroundImage" stdDeviation="21"/>
<feComposite in2="SourceAlpha" operator="in" result="effect1_backgroundBlur_6303_19"/>
<feBlend mode="normal" in="SourceGraphic" in2="effect1_backgroundBlur_6303_19" result="shape"/>
</filter>
<filter id="filter1_b_6303_19" x="44.3711" y="29.7939" width="497.895" height="513.205" filterUnits="userSpaceOnUse" color-interpolation-filters="sRGB">
<feFlood flood-opacity="0" result="BackgroundImageFix"/>
<feGaussianBlur in="BackgroundImage" stdDeviation="21"/>
<feComposite in2="SourceAlpha" operator="in" result="effect1_backgroundBlur_6303_19"/>
<feBlend mode="normal" in="SourceGraphic" in2="effect1_backgroundBlur_6303_19" result="shape"/>
</filter>
<linearGradient id="paint0_linear_6303_19" x1="500" y1="72.7939" x2="-1.39049" y2="319.876" gradientUnits="userSpaceOnUse">
<stop stop-color="white" stop-opacity="0.4"/>
<stop offset="1" stop-color="white" stop-opacity="0"/>
</linearGradient>
<radialGradient id="paint1_radial_6303_19" cx="0" cy="0" r="1" gradientUnits="userSpaceOnUse" gradientTransform="translate(293.686 286.396) rotate(-43.5732) scale(395.422 307.467)">
<stop stop-color="white"/>
<stop offset="1" stop-color="white" stop-opacity="0"/>
</radialGradient>
<radialGradient id="paint2_radial_6303_19" cx="0" cy="0" r="1" gradientUnits="userSpaceOnUse" gradientTransform="translate(293.686 286.396) rotate(129.699) scale(333.143 237.916)">
<stop stop-color="#0938DF"/>
<stop offset="1" stop-color="#0938DF" stop-opacity="0"/>
</radialGradient>
<radialGradient id="paint3_radial_6303_19" cx="0" cy="0" r="1" gradientUnits="userSpaceOnUse" gradientTransform="translate(293.686 286.396) rotate(-133.05) scale(320.364 238.867)">
<stop stop-color="#151515"/>
<stop offset="1" stop-color="#151515" stop-opacity="0"/>
</radialGradient>
<radialGradient id="paint4_radial_6303_19" cx="0" cy="0" r="1" gradientUnits="userSpaceOnUse" gradientTransform="translate(289.111 38.9937) rotate(90.248) scale(9.93045 8.16564)">
<stop stop-opacity="0.541667"/>
<stop offset="0.0001" stop-opacity="0.29"/>
<stop offset="0.53125" stop-opacity="0.09"/>
<stop offset="1" stop-opacity="0"/>
</radialGradient>
<radialGradient id="paint5_radial_6303_19" cx="0" cy="0" r="1" gradientUnits="userSpaceOnUse" gradientTransform="translate(307.651 45.033) rotate(90.3015) scale(6.78793 6.78373)">
<stop stop-opacity="0.541667"/>
<stop offset="0.0001" stop-opacity="0.29"/>
<stop offset="0.53125" stop-opacity="0.09"/>
<stop offset="1" stop-opacity="0"/>
</radialGradient>
<radialGradient id="paint6_radial_6303_19" cx="0" cy="0" r="1" gradientUnits="userSpaceOnUse" gradientTransform="translate(327.08 38.9937) rotate(90.0954) scale(9.93037 3.14066)">
<stop stop-opacity="0.541667"/>
<stop offset="0.0001" stop-opacity="0.29"/>
<stop offset="0.53125" stop-opacity="0.09"/>
<stop offset="1" stop-opacity="0"/>
</radialGradient>
<radialGradient id="paint7_radial_6303_19" cx="0" cy="0" r="1" gradientUnits="userSpaceOnUse" gradientTransform="translate(342.94 45.033) rotate(90.3015) scale(6.78793 6.78373)">
<stop stop-opacity="0.541667"/>
<stop offset="0.0001" stop-opacity="0.29"/>
<stop offset="0.53125" stop-opacity="0.09"/>
<stop offset="1" stop-opacity="0"/>
</radialGradient>
<radialGradient id="paint8_radial_6303_19" cx="0" cy="0" r="1" gradientUnits="userSpaceOnUse" gradientTransform="translate(362.448 39.3622) rotate(90.4687) scale(0.83562 2.68102)">
<stop stop-opacity="0.541667"/>
<stop offset="0.0001" stop-opacity="0.29"/>
<stop offset="0.53125" stop-opacity="0.09"/>
<stop offset="1" stop-opacity="0"/>
</radialGradient>
<radialGradient id="paint9_radial_6303_19" cx="0" cy="0" r="1" gradientUnits="userSpaceOnUse" gradientTransform="translate(387.61 39.2173) rotate(90.3015) scale(10.0562 10.05)">
<stop stop-opacity="0.541667"/>
<stop offset="0.0001" stop-opacity="0.29"/>
<stop offset="0.53125" stop-opacity="0.09"/>
<stop offset="1" stop-opacity="0"/>
</radialGradient>
<radialGradient id="paint10_radial_6303_19" cx="0" cy="0" r="1" gradientUnits="userSpaceOnUse" gradientTransform="translate(425.953 39.1395) rotate(90.3167) scale(10.0125 10.5135)">
<stop stop-opacity="0.541667"/>
<stop offset="0.0001" stop-opacity="0.29"/>
<stop offset="0.53125" stop-opacity="0.09"/>
<stop offset="1" stop-opacity="0"/>
</radialGradient>
<radialGradient id="paint11_radial_6303_19" cx="0" cy="0" r="1" gradientUnits="userSpaceOnUse" gradientTransform="translate(460.94 39.2233) rotate(90.2499) scale(10.0595 8.33317)">
<stop stop-opacity="0.541667"/>
<stop offset="0.0001" stop-opacity="0.29"/>
<stop offset="0.53125" stop-opacity="0.09"/>
<stop offset="1" stop-opacity="0"/>
</radialGradient>
<radialGradient id="paint12_radial_6303_19" cx="0" cy="0" r="1" gradientUnits="userSpaceOnUse" gradientTransform="translate(293.318 286.396) rotate(-131.541) scale(396.27 306.263)">
<stop stop-color="white"/>
<stop offset="1" stop-color="white" stop-opacity="0"/>
</radialGradient>
<radialGradient id="paint13_radial_6303_19" cx="0" cy="0" r="1" gradientUnits="userSpaceOnUse" gradientTransform="translate(293.318 286.396) rotate(41.7162) scale(331.082 238.971)">
<stop stop-color="#17B384"/>
<stop offset="1" stop-color="#17B384" stop-opacity="0"/>
</radialGradient>
<radialGradient id="paint14_radial_6303_19" cx="0" cy="0" r="1" gradientUnits="userSpaceOnUse" gradientTransform="translate(293.318 286.396) rotate(134.911) scale(319.709 238.931)">
<stop stop-color="#151515"/>
<stop offset="1" stop-color="#151515" stop-opacity="0"/>
</radialGradient>
<radialGradient id="paint15_radial_6303_19" cx="0" cy="0" r="1" gradientUnits="userSpaceOnUse" gradientTransform="translate(351.436 310.959) rotate(90) scale(121.141 65.5061)">
<stop stop-color="white"/>
<stop offset="1" stop-color="white"/>
</radialGradient>
<radialGradient id="paint16_radial_6303_19" cx="0" cy="0" r="1" gradientUnits="userSpaceOnUse" gradientTransform="translate(285.93 197.783) rotate(90) scale(58.078 131.012)">
<stop stop-color="white"/>
<stop offset="1" stop-color="white"/>
</radialGradient>
</defs>
</svg>
