<?xml version="1.0" encoding="UTF-8"?>
<svg xmlns="http://www.w3.org/2000/svg" xmlns:xlink="http://www.w3.org/1999/xlink" viewBox="0 0 48 48" width="48px" height="48px">
<g id="surface181745638">
<path style=" stroke:none;fill-rule:nonzero;fill:rgb(20.392157%,59.607846%,85.882354%);fill-opacity:1;" d="M 44 28 L 44 42 L 36 42 L 36 27 L 43 27 C 43.550781 27 44 27.449219 44 28 Z M 44 28 "/>
<path style=" stroke:none;fill-rule:nonzero;fill:rgb(20%,53.725493%,76.862746%);fill-opacity:1;" d="M 36 27 L 36 42 L 28 42 L 28 27 Z M 36 27 "/>
<path style=" stroke:none;fill-rule:nonzero;fill:rgb(12.941177%,63.921571%,40.000001%);fill-opacity:1;" d="M 28 19 L 28 42 L 20 42 L 20 19 C 20 18.449219 20.449219 18 21 18 L 27 18 C 27.550781 18 28 18.449219 28 19 Z M 28 19 "/>
<path style=" stroke:none;fill-rule:nonzero;fill:rgb(6.27451%,48.627451%,25.882354%);fill-opacity:1;" d="M 20 24 L 20 42 L 12 42 L 12 25 C 12 24.449219 12.449219 24 13 24 Z M 20 24 "/>
<path style=" stroke:none;fill-rule:nonzero;fill:rgb(9.411765%,36.078432%,21.568628%);fill-opacity:1;" d="M 12 30 L 12 42 L 4 42 L 4 31 C 4 30.449219 4.449219 30 5 30 Z M 12 30 "/>
<path style=" stroke:none;fill-rule:nonzero;fill:rgb(20%,53.725493%,76.862746%);fill-opacity:1;" d="M 4.605469 17.964844 L 16.628906 9.230469 L 18.835938 12.269531 L 6.816406 21.003906 C 6.367188 21.328125 5.742188 21.230469 5.417969 20.78125 L 4.386719 19.359375 C 4.058594 18.914062 4.160156 18.289062 4.605469 17.964844 Z M 4.605469 17.964844 "/>
<path style=" stroke:none;fill-rule:nonzero;fill:rgb(20%,53.725493%,76.862746%);fill-opacity:1;" d="M 19.800781 16.058594 L 20.863281 9.351562 C 20.949219 8.804688 20.574219 8.292969 20.03125 8.207031 L 13.320312 7.144531 C 12.882812 7.074219 12.578125 7.570312 12.839844 7.933594 L 18.902344 16.277344 C 19.160156 16.636719 19.730469 16.5 19.800781 16.058594 Z M 19.800781 16.058594 "/>
<path style=" stroke:none;fill-rule:nonzero;fill:rgb(6.27451%,48.627451%,25.882354%);fill-opacity:1;" d="M 36.664062 20.5625 C 37.558594 20.417969 38.007812 19.949219 38.007812 19.15625 C 38.007812 18.511719 37.558594 17.988281 36.664062 17.578125 C 36.277344 17.414062 35.820312 17.21875 35.296875 17.019531 C 33.832031 16.449219 32.835938 15.828125 32.300781 15.164062 C 31.847656 14.601562 31.589844 13.9375 31.519531 13.167969 C 31.417969 12.066406 31.761719 10.929688 32.5 10.136719 C 33.199219 9.386719 34.132812 8.953125 35.296875 8.832031 L 35.296875 7.492188 C 35.296875 7.21875 35.503906 7 35.761719 7 L 36.195312 7 C 36.453125 7 36.664062 7.21875 36.664062 7.492188 L 36.664062 8.789062 C 37.816406 8.847656 38.714844 9.027344 39.355469 9.324219 C 39.523438 9.402344 39.617188 9.578125 39.617188 9.769531 L 39.617188 11.304688 C 39.617188 11.660156 39.269531 11.902344 38.964844 11.753906 C 38.261719 11.40625 37.496094 11.1875 36.664062 11.09375 C 36.238281 11.046875 35.726562 11.03125 35.261719 11.117188 C 34.472656 11.273438 33.992188 11.800781 33.992188 12.558594 C 33.988281 13.234375 34.417969 13.78125 35.296875 14.253906 C 35.777344 14.515625 36.246094 14.695312 36.664062 14.824219 C 38.035156 15.292969 39.015625 15.933594 39.609375 16.601562 C 40.203125 17.265625 40.5 18.070312 40.5 19.015625 C 40.5 20.105469 40.167969 20.984375 39.503906 21.648438 C 38.84375 22.316406 37.894531 22.71875 36.664062 22.863281 L 36.664062 24.507812 C 36.664062 24.777344 36.453125 25 36.195312 25 L 35.761719 25 C 35.503906 25 35.296875 24.777344 35.296875 24.507812 L 35.296875 22.921875 C 34.128906 22.917969 33.039062 22.660156 32.019531 22.15625 C 31.855469 22.074219 31.75 21.894531 31.75 21.703125 L 31.75 20.195312 C 31.75 19.828125 32.117188 19.570312 32.429688 19.738281 C 32.699219 19.878906 33.011719 20.015625 33.371094 20.148438 C 34.09375 20.410156 34.734375 20.5625 35.296875 20.601562 C 35.773438 20.632812 36.234375 20.621094 36.664062 20.5625 Z M 36.664062 20.5625 "/>
</g>
</svg>
